<?xml version="1.0" encoding="UTF-8"?>
<svg xmlns="http://www.w3.org/2000/svg" xmlns:xlink="http://www.w3.org/1999/xlink" width="17px" height="17px" viewBox="0 0 17 17" version="1.1">
<g id="surface1">
<path style=" stroke:none;fill-rule:nonzero;fill:rgb(0%,0%,0%);fill-opacity:1;" d="M 6.023438 13.460938 C 5.433594 13.460938 4.960938 13.933594 4.960938 14.523438 C 4.960938 15.109375 5.433594 15.585938 6.023438 15.585938 C 6.609375 15.585938 7.085938 15.109375 7.085938 14.523438 C 7.085938 13.933594 6.609375 13.460938 6.023438 13.460938 Z M 13.460938 11.335938 L 4.960938 11.335938 C 4.566406 11.335938 4.25 11.015625 4.25 10.625 C 4.25 10.234375 4.566406 9.914062 4.960938 9.914062 L 10.972656 9.914062 C 11.921875 9.914062 12.753906 9.285156 13.015625 8.375 L 14.136719 4.441406 C 14.199219 4.230469 14.15625 4 14.023438 3.820312 C 13.890625 3.644531 13.679688 3.539062 13.460938 3.539062 L 4.773438 3.539062 C 4.472656 2.695312 3.675781 2.132812 2.777344 2.125 L 2.125 2.125 C 1.734375 2.125 1.414062 2.441406 1.414062 2.835938 C 1.414062 3.222656 1.734375 3.539062 2.125 3.539062 L 2.777344 3.539062 C 3.09375 3.542969 3.371094 3.75 3.460938 4.058594 L 3.570312 4.441406 L 4.730469 8.511719 C 3.605469 8.632812 2.777344 9.609375 2.835938 10.738281 C 2.898438 11.867188 3.828125 12.75 4.960938 12.75 L 13.460938 12.75 C 13.847656 12.75 14.164062 12.433594 14.164062 12.039062 C 14.164062 11.652344 13.847656 11.335938 13.460938 11.335938 Z M 12.515625 4.960938 L 11.65625 7.988281 C 11.566406 8.289062 11.289062 8.5 10.972656 8.5 L 6.203125 8.5 L 6.023438 7.867188 L 5.191406 4.960938 Z M 11.6875 13.460938 C 11.101562 13.460938 10.625 13.933594 10.625 14.523438 C 10.625 15.109375 11.101562 15.585938 11.6875 15.585938 C 12.273438 15.585938 12.75 15.109375 12.75 14.523438 C 12.75 13.933594 12.273438 13.460938 11.6875 13.460938 Z M 11.6875 13.460938 "/>
</g>
</svg>
